<?xml version="1.0" encoding="UTF-8"?>
<svg id="a" data-name="Layer 1" xmlns="http://www.w3.org/2000/svg" viewBox="0 0 400 80">
  <g>
    <path d="m59.98,43.35c2.29,19.25-28.05,22.1-34.71,9.14-3.42-5.52-1.19-30.29-1.8-36.72-1.66-.14-4.18-.43-5.47-.58v-3.02h19.01v2.95c-2.16.36-4.82.58-6.26.72,2.2,10.85-7.51,41.43,12.46,40.54,19.38,1.36,10.47-30.05,12.39-40.61-1.66-.14-5.18-.43-6.91-.65v-2.95h16.71v3.02c-1.87.29-4.03.5-5.4.58v27.58Z"/>
    <path d="m68.25,59.55v-2.95c1.01-.14,2.81-.43,4.32-.58V12.24c-1.15-.72-3.82-1.73-4.75-1.94v-2.59c4.55.04,10.98-.13,11.88-.29-.97.51-.33,46.64-.5,48.68,1.94.14,3.24.36,4.25.58v2.88h-15.19Z"/>
    <path d="m106.56,58.4c-20.92,10.06-14.13-17.11-15.19-28.23-1.37-.07-4.03-.43-5.18-.58v-2.95h5.33c.36-1.94,1.66-6.05,3.17-9.29h4.75c-.58,2.88-1.08,7.71-1.15,9.29h8.42v3.02c-1.51.14-5.83.5-8.64.5v22.61c-.48,3.83,5.09,4.67,8.5,2.88v2.74Z"/>
    <path d="m110.16,59.55v-2.95c.94-.22,3.46-.43,4.68-.58v-24.84c-1.15-.72-3.53-1.73-4.46-1.87v-2.66c2.77.04,9.21-.05,10.66-.22.14,1.15.22,3.6.29,5.18,3.32-3.98,8.9-7.08,14.04-5.4l-.86,7.92h-2.88c-2.24-4.27-6.92-2.94-10.15.22v21.75c1.51.07,4.25.22,6.62.5v2.95h-17.93Z"/>
    <path d="m163.58,54.58c-.22,1.21,2.48,2.17,4.32,1.58,1.37,5.57-9.02,4.96-10.3.5-22.01,13.9-29.41-18.41-.65-15.84.56-6.55-.32-13.59-9.65-11.59-1.45,6.25-1.43,5.41-6.84,5.33v-6.12c26.97-9.35,23.13,7.07,23.11,26.14Zm-7.85-10.95c-17.48-1.13-11.64,18.39,1.3,10.66-.21-.17,0-10.21-.07-10.66h-1.22Z"/>
  </g>
  <g>
    <path d="m169.75,59.4v-2.95c1.51-.22,3.38-.43,4.68-.58v-24.77c-2.34-1.64-5.3-1.12-4.46-4.61,2.74-.02,9.15.07,10.66-.14.14.65.14,2.02.29,3.67,7.3-5.93,15.24-5.92,18.94.36,23.34-16.01,22.79,10.37,21.89,25.49,1.44.14,3.1.43,4.18.58v2.95h-15.55v-3.02c1.51-.22,3.17-.36,4.68-.5-.26-9.84,3.73-34.29-14.26-23.4,1.06,3.05.41,19.83.58,23.4,1.44.14,3.53.43,4.46.58v2.95h-15.77v-3.02c1.44-.22,3.17-.36,4.68-.58-.52-9.45,4.25-34.02-13.68-23.47,0,0,0,23.55,0,23.55.94.14,3.02.36,4.46.58v2.95h-15.77Z"/>
    <path d="m255.22,54.44c-.22,1.21,2.48,2.17,4.32,1.58,1.37,5.57-9.02,4.95-10.3.5-22.94,14.17-27.86-19.4-.65-15.84.79-6.26-.75-13.77-9.65-11.59-1.35,6.12-1.57,5.47-6.84,5.33v-6.12c3.96-1.3,9-2.66,12.46-2.66,15.74-.65,9.43,19.9,10.66,28.8Zm-7.85-10.95c-17.34-1.6-11.19,18.58,1.3,10.66-.15-.07-.04-10.31-.07-10.66h-1.22Z"/>
    <path d="m263.35,59.4c-.67-4.04,1.48-3.03,4.68-3.53v-24.84c-1.15-.72-3.53-1.73-4.46-1.87v-2.66c2.77.04,9.21-.05,10.66-.22.14,1.15.22,3.6.29,5.18,3.32-3.98,8.9-7.07,14.04-5.4,0,0-.86,7.92-.86,7.92-2.95.55-3.2-.86-4.97-2.3-12.68-3.9-6.86,18.45-8.06,24.27,1.51.07,4.25.22,6.62.5v2.95h-17.93Z"/>
    <path d="m292.08,59.4v-2.95c1.44-.22,3.31-.43,4.68-.58v-24.77c-1.89-1.36-5.39-1.21-4.46-4.61,2.74,0,10.04.03,11.09-.22v29.67c.94,0,2.88.29,4.18.5v2.95h-15.48Zm7.13-48.6c5.58.02,5.29,8.49-.14,8.28-5.43-.08-5.56-8.04.14-8.28Z"/>
    <path d="m311.88,59.4v-2.95c1.51-.22,3.53-.43,4.68-.58v-24.77c-2.34-1.54-5.29-1.18-4.46-4.61,2.75-.02,9.15.07,10.66-.14.07.65.22,2.88.29,3.89,22.75-15.78,21.88,10.79,21.1,25.63,1.44.14,3.1.43,4.25.58v2.95h-15.63v-3.02c1.51-.22,3.17-.43,4.75-.58-.37-9.86,4-34.12-14.33-23.19,0,0,0,23.26,0,23.26,1.08.07,3.38.36,4.61.58v2.95h-15.91Z"/>
    <path d="m379.99,56.45c-25.64,18.28-39.99-28.27-11.38-30.82,10.89.19,13.61,8.58,12.82,15.55-.48.53-17.36.44-21.53.43-.07,14.26,10.35,17.52,20.09,11.81v3.02Zm-10.95-17.86c3.6,0,4.82,0,5.54-.07,1.76-12.05-13.69-14.28-14.47.07h8.93Z"/>
  </g>
</svg>